<?xml version="1.0" encoding="utf-8"?>
<!-- Generator: Adobe Illustrator 23.0.2, SVG Export Plug-In . SVG Version: 6.00 Build 0)  -->
<svg version="1.1" id="Capa_1" xmlns="http://www.w3.org/2000/svg" xmlns:xlink="http://www.w3.org/1999/xlink" x="0px" y="0px"
	 viewBox="0 0 483.3 483.3" style="enable-background:new 0 0 483.3 483.3;" xml:space="preserve">
<style type="text/css">
	.st0{fill:#DEB887;}
</style>
<g>
	<path class="st0" d="M446.3,280.2c13.2-1.3,25.4-6.9,35-16.3v167c0,28.9-23.5,52.4-52.4,52.4H53.6c-28.9,0-52.4-23.5-52.4-52.4V56
		c0-28.9,23.5-52.4,52.4-52.4h167.4c-9,9.2-15,21.5-16.3,35H53.6c-9.6,0-17.4,7.8-17.4,17.4v374.9c0,9.6,7.8,17.4,17.4,17.4H429
		c9.6,0,17.4-7.8,17.4-17.4L446.3,280.2L446.3,280.2z M455.7,0H277.9c-14.5,0-26.3,11.8-26.3,26.3c0,14.5,11.8,26.3,26.3,26.3h113
		c-1.1,0.8-2.2,1.6-3.2,2.6L202.5,240.4V125.9c0-14.5-11.8-26.3-26.3-26.3c-7.3,0-13.8,2.9-18.6,7.7c-4.8,4.8-7.7,11.3-7.7,18.6
		v177.9c0,14.5,11.8,26.3,26.3,26.3h177.8c14.5,0,26.3-11.8,26.3-26.3c0-14.5-11.8-26.3-26.3-26.3h-113c1.1-0.8,2.2-1.6,3.2-2.6
		L429.5,89.6v114.5c0,14.5,11.8,26.3,26.3,26.3c7.3,0,13.8-2.9,18.6-7.7c4.8-4.8,7.7-11.3,7.7-18.6V26.3C482,11.8,470.2,0,455.7,0z"
		/>
</g>
</svg>
