<?xml version="1.0" encoding="utf-8"?>
<!-- Generator: Adobe Illustrator 23.0.2, SVG Export Plug-In . SVG Version: 6.00 Build 0)  -->
<svg version="1.1" id="Layer_1" xmlns="http://www.w3.org/2000/svg" xmlns:xlink="http://www.w3.org/1999/xlink" x="0px" y="0px"
	 viewBox="0 0 512 512" style="enable-background:new 0 0 512 512;" xml:space="preserve">
<style type="text/css">
	.st0{fill:none;stroke:#E6DFD3;stroke-width:18;stroke-miterlimit:10;}
	.st1{fill:#E6DFD3;}
	.st2{fill:#556884;}
</style>
<circle class="st0" cx="257.5" cy="254.5" r="239.5"/>
<path class="st1" d="M296.7,189.3c7.8,6.6,15.2,13.4,21.8,20.5L206.3,322c-1.2,1.2-5.1,3.6-10.3,4.9h-0.1l-0.2,0.1
	c-0.7,0.2-1.4,0.3-2.1,0.4l-1.1,0.1l-1,0.2c-2.1,0.5-4.3,1.1-6.7,1.9l-9.5,2.3l3-12.5c0.5-1.7,0.9-3.2,1.3-4.7l0.2-0.8l0.1-0.8
	c0.1-0.5,0.2-1.1,0.3-1.6l0.1-0.3v-0.1c1.2-5.1,3.6-9,4.9-10.2L296.7,189.3 M295.2,159l-126,126c-4.8,4.8-8.9,12.7-10.8,20.9
	l-0.1-0.1c0,0,0,0.2-0.1,0.6c-0.2,1.1-0.4,2.1-0.6,3.2c-1.2,5-4.5,14.4-14,23.9l0,0l-6.6,6.6c-8,8-9.7,19.4-3.8,25.3l7.6,7.6
	c2.4,2.4,5.7,3.5,9.2,3.5c5.3,0,11.3-2.5,16.1-7.3l6.6-6.6c8.4-8.4,18-11.7,23.7-13c1.4-0.2,2.8-0.4,4.2-0.8c0.4,0,0.7-0.1,0.7-0.1
	l-0.1-0.1c8.2-2,16.1-6.1,20.9-10.8l126.6-126.6C334.3,191,314.7,174.7,295.2,159L295.2,159z"/>
<path class="st2" d="M383.8,134.1L373,123.4c-8.9-8.9-22.5-9.7-30.4-1.8l-25.5,25.5l-10.7-10.7c-5.8-5.8-15.3-5.8-21.2,0L274.7,147
	c-5.8,5.8-15.9,15.9-15.9,15.9l84.7,84.7c0,0,10-10,15.9-15.9l10.6-10.6c5.8-5.8,5.8-15.3,0-21.2l-9.8-9.8l25.5-25.5
	C393.5,156.7,392.7,143,383.8,134.1z"/>
</svg>
