<?xml version="1.0" encoding="utf-8"?>
<!-- Generator: Adobe Illustrator 23.0.2, SVG Export Plug-In . SVG Version: 6.00 Build 0)  -->
<svg version="1.1" id="Layer_1" xmlns="http://www.w3.org/2000/svg" xmlns:xlink="http://www.w3.org/1999/xlink" x="0px" y="0px"
	 viewBox="0 0 512 512" style="enable-background:new 0 0 512 512;" xml:space="preserve">
<style type="text/css">
	.st0{fill:none;stroke:#E6DFD3;stroke-width:18;stroke-miterlimit:10;}
	.st1{fill:#E0E0E0;}
</style>
<circle class="st0" cx="257.5" cy="254.5" r="239.5"/>
<g>
	<path class="st1" d="M179,244.8c-0.1,14.5-11.6,25.9-26.1,25.9c-14.6,0-26.1-11.7-25.9-26.6c0.1-14.8,11.1-25.6,26.1-25.6
		C168.3,218.3,179.1,229.4,179,244.8z"/>
	<path class="st1" d="M382.9,244.2c0,14.9-11.6,26.5-26.2,26.4c-14.5-0.1-25.8-11.7-25.8-26.2c0-15.2,11.1-26.2,26.4-26.1
		C372.2,218.4,382.9,229.3,382.9,244.2z"/>
	<path class="st1" d="M283.4,244.2c0,14.9-11.6,26.5-26.2,26.4c-14.5-0.1-25.8-11.7-25.8-26.2c0-15.2,11.1-26.2,26.4-26.1
		C272.7,218.4,283.4,229.3,283.4,244.2z"/>
</g>
</svg>
