<svg id="Layer_1" data-name="Layer 1" xmlns="http://www.w3.org/2000/svg" viewBox="0 0 497 497"><defs><style>.cls-1{fill:none;stroke:#e6dfd3;stroke-miterlimit:10;stroke-width:18px;}.cls-2{fill:#e0e0e0;}</style></defs><title>emoticon2</title><circle class="cls-1" cx="248.5" cy="248.5" r="239.5"/><path class="cls-2" d="M231.6,290.7c2.4-2.7,4.6-5.1,6.8-7.6-.4.6-.8,1.1-1.2,1.7,2.9,2.1,5.7,4.2,8.6,6.3,3.5,2.5,6.9,2.4,9.9-1a1.38,1.38,0,0,0,.3-.4c10.2-10.7,10.2-10.8,1.1-22.6-3.9-5-7.5-10.1-8.1-16.7-1.4-13.7,7.7-24.3,21.8-25.2a31.81,31.81,0,0,1,12.3,1.5c14.4,4.9,19.5,20.7,11.1,34a133,133,0,0,1-10.1,13.6c-2.2,2.6-2.2,4.6.1,7s4,5.1,6.1,7.5c4.2,4.9,8,5.1,12.7.7a76.84,76.84,0,0,0,5.5-6.6c2.3,2.5,4.5,5,6.9,7.7-5.2,7.9-11.1,13.9-21.4,13.3s-14.6-9-20.8-16.2c-6.1,9.3-12.5,17.9-25,16.1C240.6,302.7,236,297.4,231.6,290.7Z" transform="translate(-9 -6)"/><path class="cls-2" d="M123.8,221.8c-5.4-12.9-10.4-16.2-21.5-14.7-8.2,1.1-14.8,6.5-16,15.7a89.21,89.21,0,0,0,.1,25.8c2,11.7,11.2,17,22.9,15.4a22.48,22.48,0,0,1,2.6,0v37.6H99.8c0-7-.3-14.2.1-21.4.2-4.4-1.1-6-5.5-7-12.3-2.8-18.1-12.3-21.1-23.5a55.9,55.9,0,0,1,.8-31.9c4.6-14.3,18.7-23,34-21.4s22.8,7.2,26.5,19.2c1.2,3.8,0,5-3.6,5.2A72.64,72.64,0,0,0,123.8,221.8Z" transform="translate(-9 -6)"/><path class="cls-2" d="M406.4,301.7H394.3V263.8c2.4.2,4.4.6,6.5.6,9.4-.2,15.8-4.8,18.6-14a49.42,49.42,0,0,0,.2-29c-2.8-9.8-9.5-14.6-19.6-14.8-8-.1-13.1,3.9-16.8,13.4-.2.4-.4.9-.8,1.8-3.8-.6-7.6-1.3-11.4-1.9.8-10.7,7.5-19.3,17.5-22,21.2-5.7,44.1,2.5,45.9,32.6.7,11.6-.7,22.8-7.9,32.6-4.1,5.6-9.4,9.4-16.2,10.4-3.6.5-4,2.2-4,5.2C406.5,286.3,406.4,293.9,406.4,301.7Z" transform="translate(-9 -6)"/><path class="cls-2" d="M221.6,251.4a17.75,17.75,0,1,1-35.5-.5c.1-10.1,7.6-17.5,17.8-17.5C214.3,233.3,221.7,240.9,221.6,251.4Z" transform="translate(-9 -6)"/><path class="cls-2" d="M360.9,251a17.75,17.75,0,1,1-35.5.1c0-10.4,7.6-17.9,18-17.8C353.6,233.4,360.9,240.8,360.9,251Z" transform="translate(-9 -6)"/></svg>