<?xml version="1.0" encoding="utf-8"?>
<!-- Generator: Adobe Illustrator 23.0.2, SVG Export Plug-In . SVG Version: 6.00 Build 0)  -->
<svg version="1.1" id="Layer_1" xmlns="http://www.w3.org/2000/svg" xmlns:xlink="http://www.w3.org/1999/xlink" x="0px" y="0px"
	 viewBox="0 0 512 512" style="enable-background:new 0 0 512 512;" xml:space="preserve">
<style type="text/css">
	.st0{fill:none;stroke:#E6DFD3;stroke-width:18;stroke-miterlimit:10;}
</style>
<circle class="st0" cx="257.5" cy="254.5" r="239.5"/>
<g>
	<path d="M237.6,274.6c2-2.2,3.9-4.3,5.7-6.4c-0.3,0.5-0.7,0.9-1,1.4c2.4,1.8,4.8,3.6,7.2,5.3c3,2.1,5.8,2,8.3-0.8
		c0.1-0.1,0.2-0.2,0.3-0.3c8.6-9,8.6-9.1,1-19c-3.3-4.2-6.3-8.5-6.8-14c-1.1-11.5,6.4-20.5,18.3-21.2c3.4-0.2,7.1,0.2,10.4,1.3
		c12.1,4.1,16.4,17.4,9.3,28.6c-2.5,4-5.5,7.8-8.5,11.4c-1.8,2.2-1.8,3.9,0.1,5.9c1.8,2,3.3,4.3,5.1,6.3c3.5,4.1,6.7,4.3,10.7,0.6
		c1.6-1.6,2.9-3.5,4.6-5.5c1.9,2.1,3.8,4.2,5.8,6.5c-4.4,6.6-9.3,11.7-18,11.2c-8.7-0.5-12.3-7.6-17.5-13.6
		c-5.1,7.9-10.5,15.1-21,13.5C245.2,284.7,241.3,280.2,237.6,274.6z"/>
	<path d="M147,216.6c-4.6-10.8-8.7-13.6-18.1-12.3c-6.9,0.9-12.4,5.5-13.5,13.2c-1,7.1-1.1,14.6,0.1,21.7
		c1.7,9.8,9.4,14.3,19.3,12.9c0.6-0.1,1.3,0,2.2,0c0,10.5,0,20.9,0,31.6c-3.2,0-6.4,0-10.2,0c0-5.9-0.2-12,0.1-18
		c0.2-3.7-1-5-4.6-5.9c-10.4-2.4-15.2-10.3-17.7-19.8c-2.4-8.9-2.2-18,0.7-26.9c3.9-12,15.7-19.3,28.6-18
		c12.8,1.3,19.2,6.1,22.3,16.2c1,3.2,0,4.2-3,4.4C151.2,215.9,149.2,216.3,147,216.6z"/>
	<path d="M384.6,283.8c-3.8,0-6.8,0-10.2,0c0-10.7,0-21.2,0-31.9c2,0.2,3.7,0.5,5.4,0.5c7.9-0.1,13.3-4.1,15.7-11.7
		c2.5-8.1,2.5-16.3,0.2-24.4c-2.4-8.2-8-12.3-16.5-12.4c-6.7-0.1-11,3.3-14.1,11.2c-0.1,0.4-0.3,0.7-0.7,1.5
		c-3.2-0.5-6.4-1.1-9.6-1.6c0.6-9,6.3-16.2,14.7-18.5c17.9-4.8,37.1,2.1,38.6,27.5c0.6,9.8-0.6,19.2-6.6,27.4
		c-3.4,4.7-7.9,7.9-13.6,8.8c-3,0.4-3.4,1.9-3.3,4.3C384.7,270.9,384.6,277.2,384.6,283.8z"/>
	<path d="M229.2,241.5c-0.1,8.4-6.6,14.9-15,14.9c-8.4,0-15-6.7-14.9-15.3c0-8.5,6.4-14.7,15-14.7
		C223.1,226.3,229.3,232.7,229.2,241.5z"/>
	<path d="M346.4,241.2c0,8.6-6.6,15.3-15.1,15.2c-8.3-0.1-14.8-6.7-14.8-15.1c0-8.7,6.4-15.1,15.1-15
		C340.2,226.4,346.4,232.6,346.4,241.2z"/>
</g>
</svg>
