<?xml version="1.0" encoding="utf-8"?>
<!-- Generator: Adobe Illustrator 23.0.3, SVG Export Plug-In . SVG Version: 6.00 Build 0)  -->
<svg version="1.1" id="Layer_1" xmlns="http://www.w3.org/2000/svg" xmlns:xlink="http://www.w3.org/1999/xlink" x="0px" y="0px"
	 viewBox="0 0 100 100" style="enable-background:new 0 0 100 100;" xml:space="preserve">
<g id="XMLID_72_">
	<path id="XMLID_102_" d="M90.4,57.9c-4.8,0-8.8-4-8.8-8.8s4-8.8,8.8-8.8s8.8,4,8.8,8.8C99.3,53.9,95.4,57.9,90.4,57.9z M90.4,43.5
		c-3,0-5.5,2.5-5.5,5.5c0,3,2.5,5.5,5.5,5.5s5.5-2.5,5.5-5.5S93.5,43.5,90.4,43.5z"/>
</g>
<g id="XMLID_107_">
	<path id="XMLID_71_" d="M13.5,59c-0.5-1.5-1.8-2.8-3.3-3.3v-3.5H6.9v3.5c-1.5,0.5-2.8,1.8-3.3,3.3H0.1v3.3h3.5
		c0.5,1.5,1.8,2.8,3.3,3.3v3.5h3.3v-3.5c1.5-0.5,2.8-1.8,3.3-3.3H17V59H13.5z M8.6,63.1c-1.3,0-2.5-1.2-2.5-2.5s1.2-2.5,2.5-2.5
		s2.5,1.2,2.5,2.5S9.9,63.1,8.6,63.1z"/>
</g>
<g id="XMLID_88_">
	<path id="XMLID_85_" d="M24.9,28.8c-3,0-5.5-2.5-5.5-5.5s2.5-5.5,5.5-5.5s5.5,2.5,5.5,5.5S27.9,28.8,24.9,28.8z M24.9,21.3
		c-1.2,0-2.1,1-2.1,2.1c0,1.2,1,2.1,2.1,2.1s2.1-1,2.1-2.1C27,22.3,26.1,21.3,24.9,21.3z"/>
</g>
<g id="XMLID_165_">
	<path id="XMLID_166_" d="M41,53.9c-3.6,0-6.6-3-6.6-6.6c0-3.6,3-6.6,6.6-6.6s6.6,3,6.6,6.6C47.6,50.9,44.6,53.9,41,53.9z M41,44
		c-1.8,0-3.3,1.5-3.3,3.3s1.5,3.3,3.3,3.3s3.3-1.5,3.3-3.3C44.3,45.5,42.8,44,41,44z"/>
</g>
<path id="XMLID_69_" d="M25.9,34.5v39.2h47.4V34.5H25.9z M70.1,37.9v17.7l-4.8-4.8c-0.8-0.8-2.1-1.5-3.5-1.3c-1.3,0-2.5,0.7-3.3,1.5
	l-9.9,11.1L43,59c-1.8-1-4.1-0.7-5.5,0.8l-8.1,8.3V37.9H70.1z M56.8,70.4H31.5l8.3-8.4c0.3-0.5,1-0.5,1.5-0.2L56.8,70.4z M63.8,70.4
	l-12.1-6.8l9.4-10.7c0.2-0.3,0.5-0.5,1-0.5c0.3,0,0.7,0.2,1,0.3l7.1,7.1l0,10.6L63.8,70.4C63.8,70.4,63.8,70.4,63.8,70.4z"/>
</svg>
