<?xml version="1.0" encoding="utf-8"?>
<!-- Generator: Adobe Illustrator 23.0.2, SVG Export Plug-In . SVG Version: 6.00 Build 0)  -->
<svg version="1.1" id="Layer_1" xmlns="http://www.w3.org/2000/svg" xmlns:xlink="http://www.w3.org/1999/xlink" x="0px" y="0px"
	 viewBox="0 0 50 50" style="enable-background:new 0 0 50 50;" xml:space="preserve">
<style type="text/css">
	.st0{fill:#DEB887;}
</style>
<path class="st0" d="M24.8,2.9c-1,0.1-1.8,1-1.8,2v23.7l-3.6-3.6c-0.4-0.4-1-0.7-1.6-0.6c-1.1,0.1-1.9,1.1-1.8,2.2
	c0,0.5,0.3,0.9,0.6,1.3l7,7l1.4,1.4l1.4-1.4l7-7c0.8-0.8,0.8-2,0.1-2.8c-0.8-0.8-2-0.8-2.8-0.1c0,0,0,0-0.1,0.1L27,28.7V5
	c0-1.1-0.9-2-2-2c0,0,0,0-0.1,0C24.9,2.9,24.8,2.9,24.8,2.9z M2,36v5.7c0,1.5,0.5,2.9,1.5,3.9S6,47,7.4,47h35.2
	c1.5,0,2.9-0.4,3.9-1.4s1.5-2.5,1.5-4V36h-4v5.6c0,0.7-0.2,1-0.3,1.1S43.3,43,42.6,43H7.4c-0.8,0-1-0.2-1.2-0.3S6,42.4,6,41.7V36H2z
	"/>
</svg>
