<svg id="Layer_1" data-name="Layer 1" xmlns="http://www.w3.org/2000/svg" viewBox="0 0 96 96"><defs><style>.cls-1{fill:#fff;}</style></defs><title>preview</title><path class="cls-1" d="M174.75,120.75h-96v-96h96Zm-20.47-19.38c-2.56-14.43,1.45-27.09,6.8-40.19-6.87-.46-8.4-4.52-7.32-10.25-3.4,0-6.28-.24-9.1,0-5.78.58-11-.76-16.21-3.24-6.6-3.15-13.41-5.85-20.33-8.82a17.75,17.75,0,0,0-1,2.64c-1.32,6.2-3.43,11.42-11.46,9.66-.08,0-.19.14-.71.53,0,1.14.08,2.61,0,4.07-.6,8.9,1.53,18-1.56,26.72-.12.32-.2.93,0,1,2.88,2.06,1.37,5,1.57,7.62.23,3.19,0,6.41,0,10,9.29,0,18.13.27,26.94-.08,7.51-.3,14.64.45,21.24,4.3a19,19,0,0,0,2.87,1C145.88,100.87,149.45,100.69,154.28,101.37Z" transform="translate(-78.75 -24.75)"/><path d="M154.26,101.46c-4.83-.68-8.4-.5-8.32,5.09a22.3,22.3,0,0,1-3.59-1.87c-6.59-3.86-12.65-3.46-20.52-3.46-8.82,0-17.1-.31-26.38-.31C95.2,96.21,95.2,98,95.2,93c0-5.59-.86-7.08-2.8-9a18,18,0,0,1,1.15-2.48c3.1-8.76,1.32-16.33,1.32-25.56,0-1.47,0-2.94,0-4.07.52-.4.63-.55.71-.54,8,1.76,10.14-3.45,11.46-9.65a17.82,17.82,0,0,1,1-2.65c6.91,3,13.73,5.68,20.33,8.83,5.2,2.48,10.4,3.24,16.21,3.24,3.7,0,5.7,0,9.1,0-.32,5.84.45,9.79,7.32,10.25C155.7,74.37,151.7,87,154.26,101.46Zm-56.86-48c0,7.3.41,14.31-.14,21.24-.44,5.61,2.23,8.92,6.3,11.76a16.87,16.87,0,0,0,17,1.88c7-2.91,14.29-3.42,21.7-2.69,3,.29,5.87,1.07,8.89,1.64V53.46ZM109.31,42l-2.91,8.87h21.79l.18-.59ZM154,61.51v11l.57.08L157.69,63Z" transform="translate(-78.75 -24.75)"/><path class="cls-1" d="M97.42,53.37h53.8V87.2c-3-.57-5.93-1.35-8.88-1.64-7.42-.72-14.71-.22-21.71,2.7a16.9,16.9,0,0,1-17-1.89c-4.07-2.84-6.74-6.14-6.29-11.76C97.84,67.68,97.42,60.67,97.42,53.37Zm15,20.23a6.13,6.13,0,1,0-.34-12.25A6.33,6.33,0,0,0,106,67.67,6.15,6.15,0,0,0,112.41,73.6Z" transform="translate(-78.75 -24.75)"/><path class="cls-1" d="M109.33,41.89l19.06,8.27-.18.59H106.43Z" transform="translate(-78.75 -24.75)"/><path class="cls-1" d="M154.06,61.42l3.65,1.46-3.08,9.63-.57-.08Z" transform="translate(-78.75 -24.75)"/><path d="M112.41,73.6A6.15,6.15,0,0,1,106,67.67a6.33,6.33,0,0,1,6.08-6.32,6.13,6.13,0,1,1,.34,12.25Z" transform="translate(-78.75 -24.75)"/></svg>