<?xml version="1.0" encoding="utf-8"?>
<!-- Generator: Adobe Illustrator 23.0.2, SVG Export Plug-In . SVG Version: 6.00 Build 0)  -->
<svg version="1.1" id="Layer_1" xmlns="http://www.w3.org/2000/svg" xmlns:xlink="http://www.w3.org/1999/xlink" x="0px" y="0px"
	 viewBox="0 0 512 512" style="enable-background:new 0 0 512 512;" xml:space="preserve">
<style type="text/css">
	.st0{fill:none;stroke:#E6DFD3;stroke-width:18;stroke-miterlimit:10;}
	.st1{fill:#E0E0E0;}
</style>
<circle class="st0" cx="257.5" cy="254.5" r="239.5"/>
<g>
	<path class="st1" d="M310,299.2c-42,0-83.3,0-126.1,0c19.8-19,38.6-37.1,57.9-55.7c8.7,8.1,17.2,16,26.2,24.4
		c9.3-12.2,18.3-24,28.3-37.1c7.2,10.4,13.6,20.1,13.6,32.8C310,275.3,310,286.9,310,299.2z"/>
	<path class="st1" d="M198.1,228.7c0-8,6.2-14.3,14.1-14.4c8.1-0.1,14.8,6.6,14.6,14.6c-0.2,7.8-6.7,14.2-14.5,14.1
		C204.4,243,198.1,236.7,198.1,228.7z"/>
	<path class="st1" d="M352.3,269.4c-5.8,0-11.4,0-17.1,0v52.9l0-2.5l-39,0H161.4v-128H267c0-6.9,0-13.5,0-20.3c-2.5,0-4.6,0-6.7,0
		c-33.4,0-66.8,0.2-100.2-0.2c-8.6-0.1-14.4,2.6-18,10.3c0,49.7,0,99.4,0,149.1c4.3,6.9,10.5,8.9,18.5,8.8
		c57.4-0.2,114.8-0.1,172.2-0.1c1.7,0,3.3,0.1,5,0c9.5-0.6,14.8-6.2,14.8-15.8c0-16.3,0-32.6,0-48.8
		C352.6,273,352.4,271.2,352.3,269.4z"/>
	<g>
		<path class="st1" d="M352.1,241.3v-55.3h36.6L344,135.6L297.6,186h37.5l0,55.4C340.9,241.3,346.5,241.3,352.1,241.3z"/>
	</g>
</g>
</svg>
